<svg data-v-423bf9ae="" xmlns="http://www.w3.org/2000/svg" viewBox="0 0 380 90" class="iconLeftSlogan"><!----><!----><!----><g data-v-423bf9ae="" id="31fd0178-fb90-41ab-bcec-53c9b5a161b7" fill="black" transform="matrix(5.295675234247834,0,0,5.295675234247834,90.56608941695902,-13.927626472113737)"><path d="M0.66 13.94Q0.42 13.94 0.08 13.89Q-0.27 13.84-0.51 13.76L-0.51 13.76L-0.36 12.35Q-0.12 12.43 0.06 12.46Q0.24 12.49 0.43 12.49L0.43 12.49Q1.19 12.49 1.63 12.00Q2.08 11.51 2.26 10.51L2.26 10.51L3.62 2.80L5.34 2.80L3.95 10.69Q3.66 12.37 2.85 13.15Q2.05 13.94 0.66 13.94L0.66 13.94ZM13.30 6.38Q13.10 7.49 12.48 8.25Q11.87 9.02 10.90 9.37L10.90 9.37L12.46 13.79L10.64 13.79L9.33 9.65L9.18 9.65L8.05 9.65L7.31 13.78L5.60 13.78L7.53 2.80L10.43 2.80Q11.36 2.80 12.02 3.12Q12.68 3.45 13.03 4.06Q13.37 4.67 13.37 5.53L13.37 5.53Q13.37 5.97 13.30 6.38L13.30 6.38ZM11.65 6.17Q11.70 5.90 11.70 5.63L11.70 5.63Q11.70 4.94 11.32 4.58Q10.94 4.22 10.17 4.22L10.17 4.22L9.00 4.22L8.29 8.29L9.28 8.29Q10.26 8.29 10.87 7.74Q11.47 7.19 11.65 6.17L11.65 6.17ZM20.44 13.94Q18.81 13.94 18.00 12.89Q17.19 11.84 17.19 10.00L17.19 10.00Q17.19 9.13 17.36 8.18L17.36 8.18Q17.65 6.53 18.29 5.28Q18.93 4.03 19.93 3.33Q20.92 2.63 22.22 2.63L22.22 2.63Q23.13 2.63 23.81 3.01Q24.50 3.39 24.90 4.09Q25.29 4.80 25.34 5.76L25.34 5.76L23.84 6.13Q23.80 5.17 23.39 4.66Q22.98 4.14 22.19 4.14L22.19 4.14Q21.41 4.14 20.77 4.66Q20.13 5.17 19.68 6.11Q19.24 7.05 19.01 8.34L19.01 8.34Q18.86 9.19 18.86 9.93L18.86 9.93Q18.86 11.12 19.28 11.77Q19.71 12.43 20.54 12.43L20.54 12.43Q21.33 12.43 22.01 11.85Q22.68 11.27 23.08 10.31L23.08 10.31L24.46 10.91Q24.08 11.87 23.46 12.55Q22.85 13.23 22.08 13.58Q21.30 13.94 20.44 13.94L20.44 13.94ZM28 13.96Q26.72 13.96 26.01 13.21Q25.29 12.46 25.29 10.96L25.29 10.96Q25.29 10.34 25.42 9.62L25.42 9.62Q25.79 7.53 26.80 6.50Q27.82 5.48 29.29 5.48L29.29 5.48Q30.57 5.48 31.28 6.22Q32.00 6.97 32.00 8.47L32.00 8.47Q32.00 9.07 31.86 9.85L31.86 9.85Q31.50 11.92 30.48 12.94Q29.47 13.96 28 13.96L28 13.96ZM28.02 12.63Q28.87 12.63 29.45 11.92Q30.03 11.22 30.31 9.61L30.31 9.61Q30.44 8.87 30.44 8.33L30.44 8.33Q30.44 7.50 30.14 7.15Q29.84 6.79 29.25 6.79L29.25 6.79Q28.43 6.79 27.86 7.50Q27.28 8.20 26.99 9.84L26.99 9.84Q26.86 10.56 26.86 11.09L26.86 11.09Q26.86 11.92 27.16 12.27Q27.45 12.63 28.02 12.63L28.02 12.63ZM32.76 13.78L33.99 6.79L32.91 6.79L33.11 5.63L34.21 5.63L34.31 5.05Q34.50 3.99 35.09 3.40Q35.68 2.80 36.63 2.80L36.63 2.80L37.80 2.80L37.59 4.00L36.96 4.00Q36.57 4.00 36.27 4.31Q35.98 4.63 35.90 5.11L35.90 5.11L35.81 5.63L37.30 5.63L37.09 6.79L35.65 6.79L34.42 13.78L32.76 13.78ZM37.19 13.78L38.42 6.79L37.34 6.79L37.55 5.63L38.64 5.63L38.75 5.05Q38.94 3.99 39.53 3.40Q40.12 2.80 41.06 2.80L41.06 2.80L42.23 2.80L42.03 4.00L41.40 4.00Q41.00 4.00 40.71 4.31Q40.41 4.63 40.33 5.11L40.33 5.11L40.24 5.63L41.73 5.63L41.53 6.79L40.09 6.79L38.86 13.78L37.19 13.78ZM44.93 5.48Q46.28 5.48 46.86 6.22Q47.43 6.97 47.43 8.21L47.43 8.21Q47.43 8.80 47.31 9.53L47.31 9.53Q47.24 9.91 47.15 10.22L47.15 10.22L42.66 10.22Q42.60 10.58 42.60 10.90L42.60 10.90Q42.60 11.67 42.94 12.12Q43.28 12.57 43.94 12.57L43.94 12.57Q44.41 12.57 44.84 12.35Q45.27 12.13 45.64 11.72L45.64 11.72L46.68 12.41Q46.08 13.27 45.38 13.61Q44.67 13.95 43.84 13.95L43.84 13.95Q42.94 13.95 42.31 13.55Q41.68 13.15 41.36 12.42Q41.04 11.70 41.04 10.75L41.04 10.75Q41.04 10.21 41.15 9.61L41.15 9.61Q41.36 8.42 41.83 7.50Q42.30 6.57 43.08 6.02Q43.86 5.48 44.93 5.48L44.93 5.48ZM44.93 6.80Q44.09 6.80 43.60 7.43Q43.10 8.07 42.88 9.04L42.88 9.04L45.98 9.04Q46.07 8.45 46.07 8.06L46.07 8.06Q46.07 7.44 45.81 7.12Q45.55 6.80 44.93 6.80L44.93 6.80ZM52.04 5.48Q53.39 5.48 53.97 6.22Q54.54 6.97 54.54 8.21L54.54 8.21Q54.54 8.80 54.42 9.53L54.42 9.53Q54.35 9.91 54.26 10.22L54.26 10.22L49.77 10.22Q49.71 10.58 49.71 10.90L49.71 10.90Q49.71 11.67 50.05 12.12Q50.39 12.57 51.05 12.57L51.05 12.57Q51.52 12.57 51.95 12.35Q52.38 12.13 52.75 11.72L52.75 11.72L53.79 12.41Q53.19 13.27 52.49 13.61Q51.78 13.95 50.95 13.95L50.95 13.95Q50.05 13.95 49.42 13.55Q48.79 13.15 48.47 12.42Q48.15 11.70 48.15 10.75L48.15 10.75Q48.15 10.21 48.25 9.61L48.25 9.61Q48.47 8.42 48.94 7.50Q49.41 6.57 50.19 6.02Q50.97 5.48 52.04 5.48L52.04 5.48ZM52.04 6.80Q51.20 6.80 50.71 7.43Q50.21 8.07 49.99 9.04L49.99 9.04L53.09 9.04Q53.18 8.45 53.18 8.06L53.18 8.06Q53.18 7.44 52.92 7.12Q52.66 6.80 52.04 6.80L52.04 6.80Z"></path></g><!----><g data-v-423bf9ae="" id="16900432-9c5f-41ee-a5c5-ba48b7964497" transform="matrix(1.0014273749357578,0,0,1.0014273749357578,-15.955650302720393,-5.007228217331047)" stroke="none" fill="black"><path clip-rule="evenodd" d="M56.056 5.064C80.424 7.85 86.213 35.033 83.123 54.489c-3.048 19.185-8.367 35.606-27.743 39.59-15.808-16.471-3.32-24.339-1.857-44.4.019-.259.031-.515.041-.77 2.666-3.607 7.628 1.805 11.842-1.226-5.023 1.057-8.789-2.667-11.856-.675-.47-9.228-6.522-16.44-4.997-24.46.783-4.116 1.836-8.51 3.448-12.013 6.652-2.347 8.315 2.154 11.59.395-5.072-1.359-5.48-3.578-10.226-2.91.783-1.212 1.674-2.224 2.691-2.956zm-7.183 89.833c-5.717-5.823-8.025-11.173-8.539-16.222l.009.558c-3.576.271-3.856.507-6.795 2.519 2.368-2.803 3.16-3.004 6.744-3.541-.519-6.432 1.813-12.382 3.625-18.21a1.084 1.084 0 01-.277-.128c-4.631-2.873-10.894 2.809-14.396-.647 3.99 2.942 8.812-3.885 15.311-1.366 1.441-5.123 2.155-10.187-.18-15.439-3.211-7.226-3.573-12.974-2.815-17.744-1.897-2.105-4.46-2.401-7.195-2.028 3.08-.774 4.857-.462 7.471.546 1.701-7.961 6.259-13.104 4.545-18.048-24.924 2.797-30.265 23.69-30.265 46.33-.001 23.455 10.139 44.484 32.757 43.42z"></path></g><!----><g data-v-423bf9ae="" id="90977bde-acc2-4745-b56c-97e4cf68ae34" fill="black" transform="matrix(0.968568215403004,0,0,0.968568215403004,87.2550966905372,56.474411355014894)"><path d="M4.31 3.64Q6.92 3.64 7.80 5.68L7.80 5.68L7.20 6.17Q6.85 5.18 6.15 4.73Q5.46 4.28 4.33 4.28L4.33 4.28Q3.51 4.28 2.91 4.54Q2.31 4.79 2.00 5.22Q1.68 5.66 1.68 6.20L1.68 6.20Q1.68 6.73 1.95 7.08Q2.21 7.43 2.85 7.68Q3.49 7.92 4.61 8.12L4.61 8.12Q6.41 8.43 7.17 9.02Q7.92 9.60 7.92 10.64L7.92 10.64Q7.92 11.38 7.49 11.96Q7.06 12.53 6.27 12.84Q5.47 13.16 4.45 13.16L4.45 13.16Q3.00 13.16 2.00 12.58Q0.99 12.00 0.63 10.95L0.63 10.95L1.25 10.47Q1.53 11.47 2.37 11.99Q3.22 12.52 4.47 12.52L4.47 12.52Q5.67 12.52 6.43 12.03Q7.20 11.54 7.20 10.68L7.20 10.68Q7.20 9.94 6.57 9.51Q5.95 9.07 4.41 8.81L4.41 8.81Q3.11 8.58 2.35 8.26Q1.60 7.94 1.27 7.46Q0.94 6.99 0.94 6.27L0.94 6.27Q0.94 5.56 1.35 4.96Q1.76 4.35 2.53 4.00Q3.29 3.64 4.31 3.64L4.31 3.64ZM17.82 3.78L17.82 13.02L17.12 13.02L17.12 3.78L17.82 3.78ZM30.80 3.78Q32.24 3.78 33.09 4.50Q33.94 5.22 33.94 6.48L33.94 6.48Q33.94 7.74 33.09 8.47Q32.24 9.20 30.80 9.20L30.80 9.20L28.43 9.20L28.43 13.02L27.73 13.02L27.73 3.78L30.80 3.78ZM30.72 8.54Q31.92 8.54 32.56 8.01Q33.19 7.48 33.19 6.48L33.19 6.48Q33.19 5.50 32.56 4.96Q31.92 4.42 30.72 4.42L30.72 4.42L28.43 4.42L28.43 8.54L30.72 8.54ZM41.59 11.87Q41.87 11.87 42.05 12.05Q42.22 12.22 42.22 12.50L42.22 12.50Q42.22 12.78 42.05 12.96Q41.87 13.13 41.59 13.13L41.59 13.13Q41.31 13.13 41.14 12.96Q40.96 12.78 40.96 12.50L40.96 12.50Q40.96 12.22 41.14 12.05Q41.31 11.87 41.59 11.87L41.59 11.87ZM65.83 3.64Q68.43 3.64 69.31 5.68L69.31 5.68L68.71 6.17Q68.36 5.18 67.67 4.73Q66.98 4.28 65.84 4.28L65.84 4.28Q65.03 4.28 64.43 4.54Q63.83 4.79 63.51 5.22Q63.20 5.66 63.20 6.20L63.20 6.20Q63.20 6.73 63.46 7.08Q63.73 7.43 64.36 7.68Q65.00 7.92 66.12 8.12L66.12 8.12Q67.93 8.43 68.68 9.02Q69.44 9.60 69.44 10.64L69.44 10.64Q69.44 11.38 69.01 11.96Q68.57 12.53 67.78 12.84Q66.99 13.16 65.97 13.16L65.97 13.16Q64.51 13.16 63.51 12.58Q62.51 12.00 62.15 10.95L62.15 10.95L62.76 10.47Q63.04 11.47 63.89 11.99Q64.74 12.52 65.98 12.52L65.98 12.52Q67.19 12.52 67.95 12.03Q68.71 11.54 68.71 10.68L68.71 10.68Q68.71 9.94 68.09 9.51Q67.47 9.07 65.93 8.81L65.93 8.81Q64.62 8.58 63.87 8.26Q63.11 7.94 62.78 7.46Q62.45 6.99 62.45 6.27L62.45 6.27Q62.45 5.56 62.87 4.96Q63.28 4.35 64.04 4.00Q64.81 3.64 65.83 3.64L65.83 3.64ZM84.85 13.02L83.69 10.12L79.27 10.12L78.12 13.02L77.38 13.02L81.07 3.78L81.90 3.78L85.60 13.02L84.85 13.02ZM79.53 9.48L83.44 9.48L81.83 5.45L81.49 4.47L81.48 4.47L81.14 5.42L79.53 9.48ZM100.39 3.78L96.84 13.02L96.01 13.02L92.44 3.78L93.20 3.78L95.93 10.93L96.42 12.36L96.91 10.93L99.65 3.78L100.39 3.78ZM112.62 3.64Q113.92 3.64 114.88 4.22Q115.84 4.80 116.35 5.87Q116.87 6.94 116.87 8.40L116.87 8.40Q116.87 9.86 116.35 10.93Q115.84 12.00 114.88 12.58Q113.92 13.16 112.62 13.16L112.62 13.16Q111.31 13.16 110.35 12.58Q109.40 12.00 108.88 10.93Q108.36 9.86 108.36 8.40L108.36 8.40Q108.36 6.94 108.88 5.87Q109.40 4.80 110.35 4.22Q111.31 3.64 112.62 3.64L112.62 3.64ZM112.62 4.28Q111.54 4.28 110.75 4.78Q109.96 5.28 109.53 6.21Q109.10 7.14 109.10 8.40L109.10 8.40Q109.10 9.66 109.53 10.59Q109.96 11.52 110.75 12.02Q111.54 12.52 112.62 12.52L112.62 12.52Q113.69 12.52 114.49 12.02Q115.29 11.52 115.72 10.59Q116.14 9.66 116.14 8.40L116.14 8.40Q116.14 7.14 115.72 6.21Q115.29 5.28 114.49 4.78Q113.69 4.28 112.62 4.28L112.62 4.28ZM133.14 13.02L132.31 13.02L129.67 9.02L129.63 9.02L126.90 9.02L126.90 13.02L126.20 13.02L126.20 3.78L129.63 3.78Q131.01 3.78 131.83 4.48Q132.65 5.18 132.65 6.40L132.65 6.40Q132.65 7.41 132.06 8.07Q131.47 8.74 130.45 8.93L130.45 8.93L133.14 13.02ZM126.90 4.42L126.90 8.36L129.61 8.36Q130.73 8.36 131.33 7.85Q131.92 7.35 131.92 6.40L131.92 6.40Q131.92 5.45 131.33 4.93Q130.73 4.42 129.61 4.42L129.61 4.42L126.90 4.42ZM142.24 11.87Q142.52 11.87 142.69 12.05Q142.87 12.22 142.87 12.50L142.87 12.50Q142.87 12.78 142.69 12.96Q142.52 13.13 142.24 13.13L142.24 13.13Q141.96 13.13 141.78 12.96Q141.61 12.78 141.61 12.50L141.61 12.50Q141.61 12.22 141.78 12.05Q141.96 11.87 142.24 11.87L142.24 11.87ZM164.32 12.38L170.16 12.38L170.16 13.02L163.62 13.02L163.62 3.78L169.93 3.78L169.93 4.42L164.32 4.42L164.32 7.99L168.76 7.99L168.76 8.65L164.32 8.65L164.32 12.38ZM186.28 3.78L186.28 13.02L185.42 13.02L180.52 5.77L179.83 4.54L179.82 4.54L179.86 5.70L179.86 13.02L179.19 13.02L179.19 3.78L180.07 3.78L184.95 11.02L185.65 12.26L185.63 11.10L185.63 3.78L186.28 3.78ZM200.86 3.78L200.86 9.97Q200.86 11.47 200.09 12.31Q199.32 13.16 197.92 13.16L197.92 13.16Q196.64 13.16 195.94 12.51Q195.24 11.86 195.24 10.74L195.24 10.74Q195.24 10.37 195.30 10.08L195.30 10.08L195.96 9.93Q195.92 10.26 195.92 10.57L195.92 10.57Q195.92 12.52 197.90 12.52L197.90 12.52Q199.08 12.52 199.62 11.83Q200.16 11.14 200.16 9.81L200.16 9.81L200.16 3.78L200.86 3.78ZM214.34 3.64Q215.64 3.64 216.60 4.22Q217.56 4.80 218.08 5.87Q218.60 6.94 218.60 8.40L218.60 8.40Q218.60 9.86 218.08 10.93Q217.56 12.00 216.60 12.58Q215.64 13.16 214.34 13.16L214.34 13.16Q213.04 13.16 212.08 12.58Q211.12 12.00 210.60 10.93Q210.08 9.86 210.08 8.40L210.08 8.40Q210.08 6.94 210.60 5.87Q211.12 4.80 212.08 4.22Q213.04 3.64 214.34 3.64L214.34 3.64ZM214.34 4.28Q213.26 4.28 212.47 4.78Q211.68 5.28 211.25 6.21Q210.83 7.14 210.83 8.40L210.83 8.40Q210.83 9.66 211.25 10.59Q211.68 11.52 212.47 12.02Q213.26 12.52 214.34 12.52L214.34 12.52Q215.42 12.52 216.22 12.02Q217.01 11.52 217.44 10.59Q217.87 9.66 217.87 8.40L217.87 8.40Q217.87 7.14 217.44 6.21Q217.01 5.28 216.22 4.78Q215.42 4.28 214.34 4.28L214.34 4.28ZM233.56 3.78L230.29 9.42L230.29 13.02L229.59 13.02L229.59 9.42L226.31 3.78L227.14 3.78L229.94 8.69L232.74 3.78L233.56 3.78ZM240.79 11.87Q241.07 11.87 241.24 12.05Q241.42 12.22 241.42 12.50L241.42 12.50Q241.42 12.78 241.24 12.96Q241.07 13.13 240.79 13.13L240.79 13.13Q240.51 13.13 240.33 12.96Q240.16 12.78 240.16 12.50L240.16 12.50Q240.16 12.22 240.33 12.05Q240.51 11.87 240.79 11.87L240.79 11.87Z"></path></g></svg>