<svg data-v-fde0c5aa="" xmlns="http://www.w3.org/2000/svg" viewBox="0 0 300 300" class="font"><!----><defs data-v-fde0c5aa=""><!----></defs><rect data-v-fde0c5aa="" fill="transparent" x="0" y="0" width="300px" height="300px" class="logo-background-square"></rect><defs data-v-fde0c5aa=""><linearGradient data-v-fde0c5aa="" gradientTransform="rotate(25)" id="6c3bb8bd-a270-499a-ae66-5051b5a3598e" x1="0%" y1="0%" x2="100%" y2="0%"><stop data-v-fde0c5aa="" offset="0%" stop-color="#5F2517" stop-opacity="1"></stop><stop data-v-fde0c5aa="" offset="100%" stop-color="#CAB08D" stop-opacity="1"></stop></linearGradient></defs><g data-v-fde0c5aa="" id="05029e86-9abe-487e-92b0-91e69dd7ba3d" fill="url(#6c3bb8bd-a270-499a-ae66-5051b5a3598e)" transform="matrix(3.99636699453199,0,0,3.99636699453199,42.03814712909899,116.85013547545854)"><path d="M0.66 13.94Q0.42 13.94 0.08 13.89Q-0.27 13.84-0.51 13.76L-0.51 13.76L-0.36 12.35Q-0.12 12.43 0.06 12.46Q0.24 12.49 0.43 12.49L0.43 12.49Q1.19 12.49 1.63 12.00Q2.08 11.51 2.26 10.51L2.26 10.51L3.62 2.80L5.34 2.80L3.95 10.69Q3.66 12.37 2.85 13.15Q2.05 13.94 0.66 13.94L0.66 13.94ZM13.30 6.38Q13.10 7.49 12.48 8.25Q11.87 9.02 10.90 9.37L10.90 9.37L12.46 13.79L10.64 13.79L9.33 9.65L9.18 9.65L8.05 9.65L7.31 13.78L5.60 13.78L7.53 2.80L10.43 2.80Q11.36 2.80 12.02 3.12Q12.68 3.45 13.03 4.06Q13.37 4.67 13.37 5.53L13.37 5.53Q13.37 5.97 13.30 6.38L13.30 6.38ZM11.65 6.17Q11.70 5.90 11.70 5.63L11.70 5.63Q11.70 4.94 11.32 4.58Q10.94 4.22 10.17 4.22L10.17 4.22L9.00 4.22L8.29 8.29L9.28 8.29Q10.26 8.29 10.87 7.74Q11.47 7.19 11.65 6.17L11.65 6.17ZM20.44 13.94Q18.81 13.94 18.00 12.89Q17.19 11.84 17.19 10.00L17.19 10.00Q17.19 9.13 17.36 8.18L17.36 8.18Q17.65 6.53 18.29 5.28Q18.93 4.03 19.93 3.33Q20.92 2.63 22.22 2.63L22.22 2.63Q23.13 2.63 23.81 3.01Q24.50 3.39 24.90 4.09Q25.29 4.80 25.34 5.76L25.34 5.76L23.84 6.13Q23.80 5.17 23.39 4.66Q22.98 4.14 22.19 4.14L22.19 4.14Q21.41 4.14 20.77 4.66Q20.13 5.17 19.68 6.11Q19.24 7.05 19.01 8.34L19.01 8.34Q18.86 9.19 18.86 9.93L18.86 9.93Q18.86 11.12 19.28 11.77Q19.71 12.43 20.54 12.43L20.54 12.43Q21.33 12.43 22.01 11.85Q22.68 11.27 23.08 10.31L23.08 10.31L24.46 10.91Q24.08 11.87 23.46 12.55Q22.85 13.23 22.08 13.58Q21.30 13.94 20.44 13.94L20.44 13.94ZM28 13.96Q26.72 13.96 26.01 13.21Q25.29 12.46 25.29 10.96L25.29 10.96Q25.29 10.34 25.42 9.62L25.42 9.62Q25.79 7.53 26.80 6.50Q27.82 5.48 29.29 5.48L29.29 5.48Q30.57 5.48 31.28 6.22Q32.00 6.97 32.00 8.47L32.00 8.47Q32.00 9.07 31.86 9.85L31.86 9.85Q31.50 11.92 30.48 12.94Q29.47 13.96 28 13.96L28 13.96ZM28.02 12.63Q28.87 12.63 29.45 11.92Q30.03 11.22 30.31 9.61L30.31 9.61Q30.44 8.87 30.44 8.33L30.44 8.33Q30.44 7.50 30.14 7.15Q29.84 6.79 29.25 6.79L29.25 6.79Q28.43 6.79 27.86 7.50Q27.28 8.20 26.99 9.84L26.99 9.84Q26.86 10.56 26.86 11.09L26.86 11.09Q26.86 11.92 27.16 12.27Q27.45 12.63 28.02 12.63L28.02 12.63ZM32.76 13.78L33.99 6.79L32.91 6.79L33.11 5.63L34.21 5.63L34.31 5.05Q34.50 3.99 35.09 3.40Q35.68 2.80 36.63 2.80L36.63 2.80L37.80 2.80L37.59 4.00L36.96 4.00Q36.57 4.00 36.27 4.31Q35.98 4.63 35.90 5.11L35.90 5.11L35.81 5.63L37.30 5.63L37.09 6.79L35.65 6.79L34.42 13.78L32.76 13.78ZM37.19 13.78L38.42 6.79L37.34 6.79L37.55 5.63L38.64 5.63L38.75 5.05Q38.94 3.99 39.53 3.40Q40.12 2.80 41.06 2.80L41.06 2.80L42.23 2.80L42.03 4.00L41.40 4.00Q41.00 4.00 40.71 4.31Q40.41 4.63 40.33 5.11L40.33 5.11L40.24 5.63L41.73 5.63L41.53 6.79L40.09 6.79L38.86 13.78L37.19 13.78ZM44.93 5.48Q46.28 5.48 46.86 6.22Q47.43 6.97 47.43 8.21L47.43 8.21Q47.43 8.80 47.31 9.53L47.31 9.53Q47.24 9.91 47.15 10.22L47.15 10.22L42.66 10.22Q42.60 10.58 42.60 10.90L42.60 10.90Q42.60 11.67 42.94 12.12Q43.28 12.57 43.94 12.57L43.94 12.57Q44.41 12.57 44.84 12.35Q45.27 12.13 45.64 11.72L45.64 11.72L46.68 12.41Q46.08 13.27 45.38 13.61Q44.67 13.95 43.84 13.95L43.84 13.95Q42.94 13.95 42.31 13.55Q41.68 13.15 41.36 12.42Q41.04 11.70 41.04 10.75L41.04 10.75Q41.04 10.21 41.15 9.61L41.15 9.61Q41.36 8.42 41.83 7.50Q42.30 6.57 43.08 6.02Q43.86 5.48 44.93 5.48L44.93 5.48ZM44.93 6.80Q44.09 6.80 43.60 7.43Q43.10 8.07 42.88 9.04L42.88 9.04L45.98 9.04Q46.07 8.45 46.07 8.06L46.07 8.06Q46.07 7.44 45.81 7.12Q45.55 6.80 44.93 6.80L44.93 6.80ZM52.04 5.48Q53.39 5.48 53.97 6.22Q54.54 6.97 54.54 8.21L54.54 8.21Q54.54 8.80 54.42 9.53L54.42 9.53Q54.35 9.91 54.26 10.22L54.26 10.22L49.77 10.22Q49.71 10.58 49.71 10.90L49.71 10.90Q49.71 11.67 50.05 12.12Q50.39 12.57 51.05 12.57L51.05 12.57Q51.52 12.57 51.95 12.35Q52.38 12.13 52.75 11.72L52.75 11.72L53.79 12.41Q53.19 13.27 52.49 13.61Q51.78 13.95 50.95 13.95L50.95 13.95Q50.05 13.95 49.42 13.55Q48.79 13.15 48.47 12.42Q48.15 11.70 48.15 10.75L48.15 10.75Q48.15 10.21 48.25 9.61L48.25 9.61Q48.47 8.42 48.94 7.50Q49.41 6.57 50.19 6.02Q50.97 5.48 52.04 5.48L52.04 5.48ZM52.04 6.80Q51.20 6.80 50.71 7.43Q50.21 8.07 49.99 9.04L49.99 9.04L53.09 9.04Q53.18 8.45 53.18 8.06L53.18 8.06Q53.18 7.44 52.92 7.12Q52.66 6.80 52.04 6.80L52.04 6.80Z"></path></g><!----><!----></svg>